Coordinates
version=1
nRows=18
nColumns=32
inDegrees=yes

Units are S.I. units (second, meters, Newtons, ...)
If the header above contains a line with 'inDegrees', this indicates whether rotational values are in degrees (yes) or radians (no).

endheader
time	pelvis_tilt	pelvis_list	pelvis_rotation	pelvis_tx	pelvis_ty	pelvis_tz	hip_flexion_r	hip_adduction_r	hip_rotation_r	knee_angle_r	knee_adduction_r	med_cond_adduction_r	lat_cond_adduction_r	patella_r_constrained_knee_angle	ankle_angle_r	subtalar_angle_r	mtp_angle_r	hip_flexion_l	hip_adduction_l	hip_rotation_l	knee_angle_l	knee_adduction_l	med_cond_adduction_l	lat_cond_adduction_l	patella_l_constrained_knee_angle	ankle_angle_l	subtalar_angle_l	mtp_angle_l	lumbar_extension	lumbar_bending	lumbar_rotation
      0.00500000	      0.87241658	    -21.44891439	     99.31449008	      0.21006749	      0.87321375	      2.72443314	     38.96091222	      1.85253312	    -19.10192488	     -1.32703045	     -0.00000000	      0.00000000	     -0.00000000	     -0.02316105	    -26.95462303	     19.36973266	      0.00000000	     36.44661619	      6.39761788	    -11.60430402	    -19.34264717	      0.00000000	     -0.00000000	      0.00000000	     -0.33759288	      3.67174038	      5.06426633	      0.00000000	      0.00000000	      0.00000000	     -0.00000000
      0.01000000	      0.86574248	    -21.46157490	     99.32889868	      0.21005470	      0.87318732	      2.72443617	     38.98250879	      1.83377849	    -19.14884368	     -1.36469448	     -0.00000000	      0.00000000	     -0.00000000	     -0.02381841	    -26.83497641	     19.37295337	      0.00000000	     36.45569185	      6.41764988	    -11.58883732	    -19.33958742	      0.00000000	     -0.00000000	      0.00000000	     -0.33753948	      3.66891674	      5.04399836	      0.00000000	      0.00000000	      0.00000000	     -0.00000000
      0.01500000	      0.87731634	    -21.45210648	     99.31366139	      0.21007738	      0.87320783	      2.72442952	     38.96265822	      1.85877393	    -19.10451873	     -1.31643077	     -0.00000000	      0.00000000	      0.00000000	     -0.02297605	    -27.00858762	     19.36742154	     -0.00000000	     36.45383546	      6.39067729	    -11.61007816	    -19.35074373	      0.00000000	      0.00000000	     -0.00000000	     -0.33773419	      3.67417609	      5.06530511	     -0.00000000	      0.00000000	      0.00000000	     -0.00000000
      0.02000000	      0.85989189	    -21.45928775	     99.32892897	      0.21004253	      0.87319247	      2.72444981	     38.98024816	      1.82665730	    -19.15858440	     -1.36526410	     -0.00000000	      0.00000000	     -0.00000000	     -0.02382835	    -26.81985294	     19.37405762	     -0.00000000	     36.45613405	      6.42525108	    -11.58505827	    -19.34132914	      0.00000000	      0.00000000	     -0.00000000	     -0.33756988	      3.65309796	      5.03913050	      0.00000000	      0.00000000	      0.00000000	     -0.00000000
      0.02500000	      0.87989058	    -21.44605695	     99.31080122	      0.21007678	      0.87321585	      2.72442430	     38.95542018	      1.86433938	    -19.09816308	     -1.31424132	     -0.00000000	     -0.00000000	      0.00000000	     -0.02293784	    -27.01114615	     19.36782117	     -0.00000000	     36.44739714	      6.38692321	    -11.60929987	    -19.34967277	      0.00000000	     -0.00000000	      0.00000000	     -0.33771550	      3.67506585	      5.05510632	      0.00000000	      0.00000000	      0.00000000	     -0.00000000
      0.03000000	      0.86346645	    -21.46287414	     99.33038219	      0.21003880	      0.87319028	      2.72445425	     38.98423999	      1.82861995	    -19.17385813	     -1.35579234	      0.00000000	      0.00000000	     -0.00000000	     -0.02366304	    -26.91973892	     19.37055113	      0.00000000	     36.46041962	      6.42172413	    -11.58510629	    -19.34370451	      0.00000000	      0.00000000	     -0.00000000	     -0.33761133	      3.65930220	      5.04216241	      0.00000000	      0.00000000	      0.00000000	     -0.00000000
      0.03500000	      0.87596004	    -21.45199042	     99.31351048	      0.21007587	      0.87320814	      2.72443006	     38.96279259	      1.85729867	    -19.10442238	     -1.31857325	      0.00000000	     -0.00000000	      0.00000000	     -0.02301344	    -26.99725736	     19.36786032	      0.00000000	     36.45310585	      6.39224452	    -11.60972264	    -19.34963795	     -0.00000000	     -0.00000000	      0.00000000	     -0.33771489	      3.67357804	      5.06484314	      0.00000000	      0.00000000	      0.00000000	     -0.00000000
      0.04000000	      0.86164996	    -21.46082147	     99.33078310	      0.21003982	      0.87319050	      2.72445150	     38.98250057	      1.82698079	    -19.15954938	     -1.36661824	     -0.00000000	     -0.00000000	     -0.00000000	     -0.02385199	    -26.81562902	     19.37420827	      0.00000000	     36.45765176	      6.42512461	    -11.58096602	    -19.34039018	     -0.00000000	      0.00000000	     -0.00000000	     -0.33755349	      3.65078596	      5.03815044	      0.00000000	      0.00000000	      0.00000000	      0.00000000
      0.04500000	      0.87784237	    -21.45627099	     99.31660203	      0.21007740	      0.87320382	      2.72443615	     38.96887341	      1.85656198	    -19.12207881	     -1.31695519	      0.00000000	     -0.00000000	      0.00000000	     -0.02298520	    -27.04076432	     19.36571391	     -0.00000000	     36.45977050	      6.39225460	    -11.60804149	    -19.35363117	     -0.00000000	     -0.00000000	      0.00000000	     -0.33778459	      3.66889258	      5.06573962	     -0.00000000	      0.00000000	      0.00000000	      0.00000000
      0.05000000	      0.87001055	    -21.46950325	     99.33073183	      0.21005310	      0.87317424	      2.72445473	     38.99240675	      1.83506826	    -19.15832360	     -1.35926875	      0.00000000	      0.00000000	     -0.00000000	     -0.02372372	    -26.87447648	     19.37078910	     -0.00000000	     36.46901340	      6.41332099	    -11.59003493	    -19.34323660	     -0.00000000	     -0.00000000	      0.00000000	     -0.33760317	      3.66921187	      5.07593933	      0.00000000	      0.00000000	      0.00000000	      0.00000000
      0.05500000	      0.87811908	    -21.44843157	     99.31285408	      0.21007470	      0.87321329	      2.72442604	     38.95754778	      1.86075429	    -19.09537014	     -1.31505711	      0.00000000	     -0.00000000	     -0.00000000	     -0.02295208	    -26.99775644	     19.36794615	     -0.00000000	     36.44858161	      6.38901057	    -11.61106914	    -19.34760035	     -0.00000000	      0.00000000	     -0.00000000	     -0.33767933	      3.67567701	      5.06489993	     -0.00000000	      0.00000000	      0.00000000	      0.00000000
      0.06000000	      0.86303666	    -21.46233300	     99.33047363	      0.21003798	      0.87319114	      2.72445401	     38.98365547	      1.82814674	    -19.17470428	     -1.35613949	      0.00000000	     -0.00000000	      0.00000000	     -0.02366910	    -26.91844579	     19.37062189	     -0.00000000	     36.45969135	      6.42230251	    -11.58460249	    -19.34360548	     -0.00000000	      0.00000000	     -0.00000000	     -0.33760960	      3.65904747	      5.04084701	      0.00000000	      0.00000000	      0.00000000	      0.00000000
      0.06500000	      0.87611021	    -21.45210010	     99.31356067	      0.21007597	      0.87320793	      2.72443007	     38.96289407	      1.85742881	    -19.10468646	     -1.31834684	     -0.00000000	     -0.00000000	      0.00000000	     -0.02300949	    -26.99895265	     19.36778390	     -0.00000000	     36.45330999	      6.39209846	    -11.60979203	    -19.34981421	     -0.00000000	     -0.00000000	      0.00000000	     -0.33771797	      3.67371418	      5.06479623	      0.00000000	      0.00000000	      0.00000000	      0.00000000
      0.07000000	      0.86139072	    -21.46054769	     99.33057203	      0.21003987	      0.87319095	      2.72445147	     38.98216137	      1.82687762	    -19.15937334	     -1.36653935	     -0.00000000	     -0.00000000	      0.00000000	     -0.02385061	    -26.81574716	     19.37421047	     -0.00000000	     36.45737942	      6.42520536	    -11.58145193	    -19.34051504	     -0.00000000	      0.00000000	     -0.00000000	     -0.33755567	      3.65080642	      5.03807002	     -0.00000000	     -0.00000000	      0.00000000	      0.00000000
      0.07500000	      0.87782349	    -21.45639101	     99.31670302	      0.21007730	      0.87320370	      2.72443633	     38.96904953	      1.85644620	    -19.12247785	     -1.31706206	      0.00000000	     -0.00000000	     -0.00000000	     -0.02298707	    -27.04083063	     19.36569735	     -0.00000000	     36.45991494	      6.39235433	    -11.60794504	    -19.35365891	     -0.00000000	     -0.00000000	     -0.00000000	     -0.33778507	      3.66877140	      5.06580013	      0.00000000	     -0.00000000	      0.00000000	      0.00000000
      0.08000000	      0.86976562	    -21.46936604	     99.33063615	      0.21005284	      0.87317455	      2.72445466	     38.99227903	      1.83485334	    -19.15858836	     -1.35941964	     -0.00000000	     -0.00000000	      0.00000000	     -0.02372635	    -26.87427057	     19.37081233	     -0.00000000	     36.46877260	      6.41353275	    -11.59004382	    -19.34313631	      0.00000000	     -0.00000000	      0.00000000	     -0.33760142	      3.66925431	      5.07577501	      0.00000000	      0.00000000	      0.00000000	     -0.00000000
      0.08500000	      0.87815448	    -21.44846163	     99.31285253	      0.21007474	      0.87321322	      2.72442601	     38.95757191	      1.86079532	    -19.09542820	     -1.31498755	     -0.00000000	      0.00000000	     -0.00000000	     -0.02295086	    -26.99826469	     19.36792335	     -0.00000000	     36.44864007	      6.38896394	    -11.61112075	    -19.34765909	     -0.00000000	     -0.00000000	      0.00000000	     -0.33768035	      3.67572707	      5.06485698	     -0.00000000	     -0.00000000	      0.00000000	     -0.00000000
      0.09000000	      0.86317746	    -21.46249792	     99.33048200	      0.21003816	      0.87319086	      2.72445410	     38.98383879	      1.82827436	    -19.17456909	     -1.35605310	     -0.00000000	      0.00000000	     -0.00000000	     -0.02366759	    -26.91884867	     19.37059879	      0.00000000	     36.45992062	      6.42214440	    -11.58470176	    -19.34365886	     -0.00000000	     -0.00000000	      0.00000000	     -0.33761054	      3.65914234	      5.04117488	     -0.00000000	     -0.00000000	      0.00000000	     -0.00000000
